<?xml version="1.0" encoding="UTF-8" standalone="no"?>
<!-- Created with Inkscape (http://www.inkscape.org/) -->

<svg
   xmlns:dc="http://purl.org/dc/elements/1.1/"
   xmlns:cc="http://creativecommons.org/ns#"
   xmlns:rdf="http://www.w3.org/1999/02/22-rdf-syntax-ns#"
   xmlns:svg="http://www.w3.org/2000/svg"
   xmlns="http://www.w3.org/2000/svg"
   xmlns:sodipodi="http://sodipodi.sourceforge.net/DTD/sodipodi-0.dtd"
   xmlns:inkscape="http://www.inkscape.org/namespaces/inkscape"
   width="154.44646mm"
   height="154.44646mm"
   viewBox="0 0 547.25123 547.25122"
   id="svg2"
   version="1.1"
   inkscape:version="0.91 r13725"
   sodipodi:docname="photostream.svg">
  <defs
     id="defs4" />
  <sodipodi:namedview
     id="base"
     pagecolor="#ffffff"
     bordercolor="#666666"
     borderopacity="1.0"
     inkscape:pageopacity="0.0"
     inkscape:pageshadow="2"
     inkscape:zoom="0.79182194"
     inkscape:cx="102.40939"
     inkscape:cy="263.52234"
     inkscape:document-units="px"
     inkscape:current-layer="layer1"
     showgrid="false"
     fit-margin-top="0"
     fit-margin-left="0"
     fit-margin-right="0"
     fit-margin-bottom="0"
     inkscape:window-width="1600"
     inkscape:window-height="837"
     inkscape:window-x="-8"
     inkscape:window-y="-8"
     inkscape:window-maximized="1" />
  <metadata
     id="metadata7">
    <rdf:RDF>
      <cc:Work
         rdf:about="">
        <dc:format>image/svg+xml</dc:format>
        <dc:type
           rdf:resource="http://purl.org/dc/dcmitype/StillImage" />
        <dc:title></dc:title>
      </cc:Work>
    </rdf:RDF>
  </metadata>
  <g
     inkscape:label="Layer 1"
     inkscape:groupmode="layer"
     id="layer1"
     transform="translate(940.92767,-174.65242)">
    <rect
       style="fill:#ffffff;fill-opacity:1;stroke:none;stroke-width:1.85181844;stroke-linecap:square;stroke-linejoin:miter;stroke-miterlimit:4;stroke-dasharray:none;stroke-dashoffset:0;stroke-opacity:1"
       id="rect5697"
       width="547.25122"
       height="547.25122"
       x="-940.92767"
       y="174.65242" />
    <path
       style="color:#000000;font-style:normal;font-variant:normal;font-weight:normal;font-stretch:normal;font-size:medium;line-height:normal;font-family:sans-serif;text-indent:0;text-align:start;text-decoration:none;text-decoration-line:none;text-decoration-style:solid;text-decoration-color:#000000;letter-spacing:normal;word-spacing:normal;text-transform:none;direction:ltr;block-progression:tb;writing-mode:lr-tb;baseline-shift:baseline;text-anchor:start;white-space:normal;clip-rule:nonzero;display:inline;overflow:visible;visibility:visible;opacity:1;isolation:auto;mix-blend-mode:normal;color-interpolation:sRGB;color-interpolation-filters:linearRGB;solid-color:#000000;solid-opacity:1;fill:#000000;fill-opacity:1;fill-rule:evenodd;stroke:#ffffff;stroke-width:6.25;stroke-linecap:round;stroke-linejoin:miter;stroke-miterlimit:4;stroke-dasharray:none;stroke-dashoffset:0;stroke-opacity:1;color-rendering:auto;image-rendering:auto;shape-rendering:auto;text-rendering:auto;enable-background:accumulate"
       d="m -905.65039,381.69531 a 10.551055,10.551055 0 0 0 -8.33203,17.21875 c 33.0699,41.73107 63.94668,63.93658 93.89844,72.57032 29.95176,8.63373 58.03674,3.14461 83.58789,-7.37305 51.10229,-21.03533 95.31437,-60.00517 139.63867,-61.20313 101.55069,-2.74461 163.66601,59.75391 163.66601,59.75391 a 10.551055,10.551055 0 1 0 14.95508,-14.88477 c 0,0 -68.69619,-68.9473 -179.1914,-65.96093 -55.43498,1.49824 -101.07337,43.83733 -147.09961,62.7832 -23.01313,9.47293 -45.31339,13.64264 -69.71289,6.60937 -24.39951,-7.03326 -51.84026,-25.81901 -83.20508,-65.39843 a 10.551055,10.551055 0 0 0 -8.20508,-4.11524 z"
       id="path4138"
       inkscape:connector-curvature="0" />
    <g
       id="g5670"
       transform="translate(-1.2629097,242.47876)">
      <rect
         transform="matrix(0.85348453,-0.52111819,0.52111819,0.85348453,0,0)"
         y="-335.02155"
         x="-821.71887"
         height="257.14285"
         width="317.14285"
         id="rect4161"
         style="fill:#ffffff;fill-opacity:1;stroke:#000000;stroke-width:21.10000038;stroke-linecap:round;stroke-linejoin:bevel;stroke-miterlimit:4;stroke-dasharray:none;stroke-dashoffset:0;stroke-opacity:1" />
      <rect
         transform="matrix(0.85348453,-0.52111819,0.52111819,0.85348453,0,0)"
         y="-303.74142"
         x="-794.96387"
         height="196.29688"
         width="262.48999"
         id="rect4161-1"
         style="fill:none;fill-opacity:1;stroke:#000000;stroke-width:7.98882675;stroke-linecap:square;stroke-linejoin:bevel;stroke-miterlimit:4;stroke-dasharray:none;stroke-dashoffset:0;stroke-opacity:1" />
      <path
         transform="matrix(0.06998866,-2.4926291,2.4926291,0.06998866,-590.44455,-2611.85)"
         inkscape:transform-center-y="-17.422484"
         inkscape:transform-center-x="7.6260997"
         d="m -1137.1427,-21.923499 -13.8729,27.4380918 -16.8257,-25.7333268 z"
         inkscape:randomized="0"
         inkscape:rounded="0"
         inkscape:flatsided="true"
         sodipodi:arg2="0.46812328"
         sodipodi:arg1="-0.57907427"
         sodipodi:r2="17.714333"
         sodipodi:r1="17.751114"
         sodipodi:cy="-12.209213"
         sodipodi:cx="-1151.9999"
         sodipodi:sides="3"
         id="path5639"
         style="fill:none;fill-opacity:1;stroke:#000000;stroke-width:10;stroke-linecap:square;stroke-linejoin:miter;stroke-miterlimit:4;stroke-dasharray:none;stroke-dashoffset:0;stroke-opacity:1"
         sodipodi:type="star" />
      <path
         transform="matrix(0.09191439,-3.2735077,3.2735077,0.09191439,-457.587,-3583.7726)"
         inkscape:transform-center-y="-22.880571"
         inkscape:transform-center-x="10.01514"
         d="m -1137.1427,-21.923499 -13.8729,27.4380918 -16.8257,-25.7333268 z"
         inkscape:randomized="0"
         inkscape:rounded="0"
         inkscape:flatsided="true"
         sodipodi:arg2="0.46812328"
         sodipodi:arg1="-0.57907427"
         sodipodi:r2="17.714333"
         sodipodi:r1="17.751114"
         sodipodi:cy="-12.209213"
         sodipodi:cx="-1151.9999"
         sodipodi:sides="3"
         id="path5639-6"
         style="fill:none;fill-opacity:1;stroke:#000000;stroke-width:10;stroke-linecap:square;stroke-linejoin:miter;stroke-miterlimit:4;stroke-dasharray:none;stroke-dashoffset:0;stroke-opacity:1"
         sodipodi:type="star" />
      <circle
         transform="matrix(0.85348453,-0.52111819,0.52111819,0.85348453,0,0)"
         r="22.571428"
         cy="-262.73584"
         cx="-746.00452"
         id="path5656"
         style="fill:#000000;fill-opacity:1;stroke:#ffffff;stroke-width:6.24999997;stroke-linecap:square;stroke-linejoin:miter;stroke-miterlimit:4;stroke-dasharray:none;stroke-dashoffset:0;stroke-opacity:1" />
    </g>
    <path
       style="fill:#ffffff;fill-opacity:1;fill-rule:evenodd;stroke:none;stroke-width:21.10000038;stroke-linecap:round;stroke-linejoin:miter;stroke-miterlimit:4;stroke-dasharray:none;stroke-opacity:1"
       d="m -433.30308,655.43329 c 0,0 -65.40565,-65.72263 -171.42858,-62.85714 -99.7593,2.6962 -179.702,162.62097 -308.5715,-10e-6 l 2.8572,-102.85715 c 128.8694,162.62098 208.8122,2.69621 308.5714,10e-6 106.02303,-2.86549 171.42863,62.85714 171.42863,62.85714 z"
       id="path4138-5-4"
       inkscape:connector-curvature="0"
       sodipodi:nodetypes="csccscc" />
    <path
       style="color:#000000;font-style:normal;font-variant:normal;font-weight:normal;font-stretch:normal;font-size:medium;line-height:normal;font-family:sans-serif;text-indent:0;text-align:start;text-decoration:none;text-decoration-line:none;text-decoration-style:solid;text-decoration-color:#000000;letter-spacing:normal;word-spacing:normal;text-transform:none;direction:ltr;block-progression:tb;writing-mode:lr-tb;baseline-shift:baseline;text-anchor:start;white-space:normal;clip-rule:nonzero;display:inline;overflow:visible;visibility:visible;opacity:1;isolation:auto;mix-blend-mode:normal;color-interpolation:sRGB;color-interpolation-filters:linearRGB;solid-color:#000000;solid-opacity:1;fill:#000000;fill-opacity:1;fill-rule:evenodd;stroke:#ffffff;stroke-width:6.25;stroke-linecap:round;stroke-linejoin:miter;stroke-miterlimit:4;stroke-dasharray:none;stroke-dashoffset:0;stroke-opacity:1;color-rendering:auto;image-rendering:auto;shape-rendering:auto;text-rendering:auto;enable-background:accumulate"
       d="m -914.22852,585.33594 a 10.551055,10.551055 0 0 0 -8.33203,17.21875 c 33.06991,41.73106 63.94668,63.93463 93.89844,72.56836 29.95176,8.63373 58.03674,3.14657 83.58789,-7.3711 51.10229,-21.03532 95.31438,-60.00517 139.63867,-61.20312 101.55069,-2.74462 163.66602,59.75195 163.66602,59.75195 a 10.551055,10.551055 0 1 0 14.95508,-14.88281 c 0,0 -68.6962,-68.94925 -179.19141,-65.96289 -55.43497,1.49824 -101.07336,43.83929 -147.09961,62.78515 -23.01312,9.47294 -45.31338,13.64265 -69.71289,6.60938 -24.39951,-7.03327 -51.84024,-25.82097 -83.20508,-65.40039 a 10.551055,10.551055 0 0 0 -8.20508,-4.11328 z"
       id="path4138-5"
       inkscape:connector-curvature="0" />
    <path
       style="color:#000000;font-style:normal;font-variant:normal;font-weight:normal;font-stretch:normal;font-size:medium;line-height:normal;font-family:sans-serif;text-indent:0;text-align:start;text-decoration:none;text-decoration-line:none;text-decoration-style:solid;text-decoration-color:#000000;letter-spacing:normal;word-spacing:normal;text-transform:none;direction:ltr;block-progression:tb;writing-mode:lr-tb;baseline-shift:baseline;text-anchor:start;white-space:normal;clip-rule:nonzero;display:inline;overflow:visible;visibility:visible;opacity:1;isolation:auto;mix-blend-mode:normal;color-interpolation:sRGB;color-interpolation-filters:linearRGB;solid-color:#000000;solid-opacity:1;fill:#000000;fill-opacity:1;fill-rule:evenodd;stroke:#ffffff;stroke-width:6.25;stroke-linecap:round;stroke-linejoin:miter;stroke-miterlimit:4;stroke-dasharray:none;stroke-dashoffset:0;stroke-opacity:1;color-rendering:auto;image-rendering:auto;shape-rendering:auto;text-rendering:auto;enable-background:accumulate"
       d="m -911.37109,482.47852 a 10.551055,10.551055 0 0 0 -8.33203,17.21875 c 33.06989,41.73106 63.94667,63.93658 93.89843,72.57031 29.95176,8.63373 58.03675,3.14461 83.58789,-7.37305 51.10229,-21.03532 95.31438,-60.00517 139.63868,-61.20312 101.55068,-2.74462 163.66601,59.75195 163.66601,59.75195 a 10.551055,10.551055 0 1 0 14.95508,-14.88281 c 0,0 -68.69619,-68.94926 -179.19141,-65.96289 -55.43497,1.49824 -101.07336,43.83929 -147.09961,62.78515 -23.01312,9.47293 -45.31338,13.64265 -69.71289,6.60938 -24.39951,-7.03327 -51.84025,-25.82097 -83.20508,-65.40039 a 10.551055,10.551055 0 0 0 -8.20507,-4.11328 z"
       id="path4138-0"
       inkscape:connector-curvature="0" />
  </g>
</svg>
